<svg width="24" height="24" viewBox="0 0 24 24" fill="none" xmlns="http://www.w3.org/2000/svg">
<path d="M22.1119 23.8137L13.696 15.3976C13.056 15.9523 12.3093 16.3843 11.4559 16.6936C10.6026 17.003 9.69598 17.1577 8.73598 17.1577C6.43198 17.1577 4.47998 16.3576 2.87998 14.7577C1.27998 13.1577 0.47998 11.227 0.47998 8.96568C0.47998 6.70435 1.27998 4.77368 2.87998 3.17368C4.47998 1.57368 6.42132 0.773682 8.70398 0.773682C10.9653 0.773682 12.8907 1.57368 14.4799 3.17368C16.0693 4.77368 16.864 6.70435 16.864 8.96568C16.864 9.88301 16.7146 10.7683 16.416 11.6217C16.1173 12.475 15.6693 13.275 15.072 14.0217L23.52 22.4056L22.1119 23.8137ZM8.70398 15.2377C10.432 15.2377 11.904 14.6244 13.12 13.3977C14.3359 12.171 14.944 10.6936 14.944 8.96568C14.944 7.23769 14.3359 5.76035 13.12 4.53368C11.904 3.30701 10.432 2.69368 8.70398 2.69368C6.95464 2.69368 5.46664 3.30701 4.23998 4.53368C3.01331 5.76035 2.39998 7.23769 2.39998 8.96568C2.39998 10.6936 3.01331 12.171 4.23998 13.3977C5.46664 14.6244 6.95464 15.2377 8.70398 15.2377Z" fill="black"/>
</svg>
